Coordinates
version=1
nRows=7
nColumns=63
inDegrees=yes

Units are S.I. units (second, meters, Newtons, ...)
If the header above contains a line with 'inDegrees', this indicates whether rotational values are in degrees (yes) or radians (no).

endheader
time	pelvis_tilt	pelvis_list	pelvis_rotation	pelvis_tx	pelvis_ty	pelvis_tz	hip_flexion_r	hip_adduction_r	hip_rotation_r	knee_angle_r	knee_angle_r_beta	ankle_angle_r	subtalar_angle_r	mtp_angle_r	hip_flexion_l	hip_adduction_l	hip_rotation_l	knee_angle_l	knee_angle_l_beta	ankle_angle_l	subtalar_angle_l	mtp_angle_l	L5_S1_Flex_Ext	L5_S1_Lat_Bending	L5_S1_axial_rotation	L4_L5_Flex_Ext	L4_L5_Lat_Bending	L4_L5_axial_rotation	L3_L4_Flex_Ext	L3_L4_Lat_Bending	L3_L4_axial_rotation	L2_L3_Flex_Ext	L2_L3_Lat_Bending	L2_L3_axial_rotation	L1_L2_Flex_Ext	L1_L2_Lat_Bending	L1_L2_axial_rotation	L1_T12_Flex_Ext	L1_T12_Lat_Bending	L1_T12_axial_rotation	Abs_r3	Abs_r2	Abs_r1	Abs_t1	Abs_t2	neck_flexion	neck_bending	neck_rotation	arm_flex_r	arm_add_r	arm_rot_r	elbow_flex_r	pro_sup_r	wrist_flex_r	wrist_dev_r	arm_flex_l	arm_add_l	arm_rot_l	elbow_flex_l	pro_sup_l	wrist_flex_l	wrist_dev_l
     11.24200000	    -55.03689810	     -6.92930077	     -4.22289515	     -0.25970670	      1.06793084	     -0.04343134	    113.95848586	     -3.78438145	     -6.33124653	    108.76899974	      1.89837717	     18.53563572	      1.03185237	      0.00000000	     98.04113929	     -8.33374257	      4.45096380	     49.70823602	      0.86757238	     -7.42354764	      2.76675065	      0.00000000	     -0.10111033	      1.58669302	      1.13112914	     -0.18777200	      2.11030171	      1.20182471	     -0.16611417	      3.85788540	      1.20182471	     -0.11555900	      3.85788540	      0.98973800	     -0.09389106	      3.23558440	      0.91904242	     -0.05777444	      2.45778749	      0.84834685	     -0.72222100	     17.94898876	      6.29100093	      0.00000000	      0.00000000	     -0.00000000	      0.00000000	      0.00000000	     62.35983984	    -15.42386638	     19.97145743	     42.26007940	     23.55881909	      0.00000000	      5.00000014	     57.13886808	     -6.30083331	      7.52083756	     38.40123693	     21.12860221	      0.00000000	      5.00000014
     11.25000000	    -55.04196047	     -7.24616927	     -4.42808521	     -0.25910416	      1.06780054	     -0.04341544	    115.03652808	     -4.22939321	     -7.00029229	    109.50383217	      1.91120241	     18.89821915	      1.11033566	      0.00000000	     97.03596622	     -8.74188640	      4.30876287	     48.89962681	      0.85345949	     -7.99390149	      3.00857165	      0.00000000	     -0.09947198	      1.64128050	      1.16707162	     -0.18472941	      2.18290307	      1.24001360	     -0.16342252	      3.99060941	      1.24001360	     -0.11368653	      3.99060941	      1.02118767	     -0.09236968	      3.34689920	      0.94824569	     -0.05683829	      2.54234350	      0.87530371	     -0.71051841	     18.56649328	      6.49090223	      0.00000000	      0.00000000	     -0.00000000	      0.00000000	      0.00000000	     62.40155685	    -15.50168623	     20.05394972	     42.30828677	     23.60034392	      0.00000000	      5.00000014	     56.95513041	     -6.24927677	      7.47591369	     38.35174631	     21.14739445	      0.00000000	      5.00000014
     11.25800000	    -55.02206644	     -7.42352675	     -4.70034660	     -0.25847499	      1.06735602	     -0.04321858	    116.12473566	     -4.57976574	     -7.53529528	    110.17028782	      1.92283426	     19.23237879	      1.13724384	      0.00000000	     96.18538156	     -9.11182927	      4.34035080	     48.57102078	      0.84772423	     -8.33513854	      3.09883991	      0.00000000	     -0.09817166	      1.67829052	      1.20403698	     -0.18231458	      2.23212639	      1.27928929	     -0.16128621	      4.08059557	      1.27928929	     -0.11220039	      4.08059557	      1.05353236	     -0.09116220	      3.42237002	      0.97828005	     -0.05609528	      2.59967201	      0.90302774	     -0.70123032	     18.98515800	      6.69649248	      0.00000000	      0.00000000	     -0.00000000	      0.00000000	      0.00000000	     62.39979444	    -15.45432762	     20.11544431	     42.33361911	     23.63955354	      0.00000000	      5.00000014	     56.74616042	     -6.30736736	      7.44180673	     38.30441856	     21.17777071	      0.00000000	      5.00000014
     11.26700000	    -55.06055075	     -8.43274725	     -4.73886796	     -0.25790932	      1.06754824	     -0.04410987	    116.78368137	     -5.50404626	     -8.66535332	    110.43303000	      1.92741998	     20.03085407	      2.07027515	      0.00000000	     95.42059693	     -9.28209745	      4.99641689	     47.90561106	      0.83611064	     -9.16786362	      3.84242934	      0.00000000	     -0.09915938	      1.83206041	      1.18989320	     -0.18414889	      2.43664034	      1.26426152	     -0.16290895	      4.45447167	      1.26426152	     -0.11332926	      4.45447167	      1.04115655	     -0.09207940	      3.73593758	      0.96678822	     -0.05665967	      2.83786157	      0.89241990	     -0.70828554	     20.72463372	      6.61782899	      0.00000000	      0.00000000	     -0.00000000	      0.00000000	      0.00000000	     62.98048763	    -15.75469790	     21.40607177	     42.08530129	     23.73419007	      0.00000000	      5.00000014	     56.29950926	     -6.03623569	      6.58794734	     38.48124128	     20.92283342	      0.00000000	      5.00000014
     11.27500000	    -55.08418644	     -8.76247996	     -4.94481757	     -0.25749672	      1.06741503	     -0.04391669	    117.70838924	     -5.93409674	     -9.25887616	    110.65901083	      1.93136409	     20.29602372	      2.18384633	      0.00000000	     94.63601999	     -9.64602702	      4.98854941	     47.55181001	      0.82993565	     -9.54150727	      3.97019265	      0.00000000	     -0.10021927	      1.88744236	      1.20923547	     -0.18611721	      2.51029834	      1.28481268	     -0.16465024	      4.58912735	      1.28481268	     -0.11454060	      4.58912735	      1.05808103	     -0.09306362	      3.84887246	      0.98250382	     -0.05726529	      2.92364821	      0.90692660	     -0.71585623	     21.35112545	      6.72540490	      0.00000000	      0.00000000	     -0.00000000	      0.00000000	      0.00000000	     63.09549504	    -15.65931431	     21.44066464	     42.03792089	     23.75260154	      0.00000000	      5.00000014	     56.05012771	     -6.12741453	      6.55730195	     38.57431741	     20.92529593	      0.00000000	      5.00000014
     11.28300000	    -55.12999153	     -9.47230811	     -5.10326511	     -0.25711906	      1.06730238	     -0.04399707	    118.43422440	     -6.55933040	    -10.14700039	    110.69329729	      1.93196250	     20.71859744	      2.57482303	      0.00000000	     94.13383150	     -9.90071017	      5.61096505	     47.54262605	      0.82977536	     -9.99990138	      4.20864716	      0.00000000	     -0.10020769	      1.99253500	      1.20917409	     -0.18609571	      2.65007155	      1.28474747	     -0.16463122	      4.84464959	      1.28474747	     -0.11452737	      4.84464959	      1.05802733	     -0.09305287	      4.06317737	      0.98245395	     -0.05725868	      3.08643671	      0.90688057	     -0.71577354	     22.53995440	      6.72506355	      0.00000000	      0.00000000	     -0.00000000	      0.00000000	      0.00000000	     63.42159705	    -15.61052664	     21.81636129	     41.82958754	     23.78450419	      0.00000000	      5.00000014	     55.69171771	     -6.11669803	      6.25322355	     38.82854608	     20.83312637	      0.00000000	      5.00000014
     11.29200000	    -55.16867536	     -9.80241047	     -5.23166552	     -0.25683886	      1.06733345	     -0.04376407	    119.22647302	     -7.01586119	    -10.68117799	    110.55834498	      1.92960714	     20.83638639	      2.71592479	      0.00000000	     93.50182899	    -10.21863635	      5.59980391	     47.45922413	      0.82831972	    -10.08852569	      4.20655230	      0.00000000	     -0.09968479	      2.04405657	      1.21420053	     -0.18512463	      2.71859524	      1.29008807	     -0.16377214	      4.96991915	      1.29008807	     -0.11392975	      4.96991915	      1.06242547	     -0.09256730	      4.16824016	      0.98653793	     -0.05695989	      3.16624363	      0.91065040	     -0.71203850	     23.12277673	      6.75301911	      0.00000000	      0.00000000	     -0.00000000	      0.00000000	      0.00000000	     63.53661762	    -15.54250594	     21.93010261	     41.78285114	     23.81550813	      0.00000000	      5.00000014	     55.44397997	     -6.19176842	      6.15380583	     38.97865687	     20.83133114	      0.00000000	      5.00000014
